Coordinates
version=1
nRows=29
nColumns=22
inDegrees=yes

Units are S.I. units (second, meters, Newtons, ...)
If the header above contains a line with 'inDegrees', this indicates whether rotational values are in degrees (yes) or radians (no).

endheader
time	pelvis_tilt	pelvis_list	pelvis_rotation	pelvis_tx	pelvis_ty	pelvis_tz	hip_flexion_r	hip_adduction_r	hip_rotation_r	knee_angle_r	ankle_angle_r	subtalar_angle_r	hip_flexion_l	hip_adduction_l	hip_rotation_l	knee_angle_l	ankle_angle_l	subtalar_angle_l	lumbar_extension	lumbar_bending	lumbar_rotation
      4.75000000	     -2.36149113	      5.82280110	   -489.96339232	      0.76584016	      0.95527068	      0.84657852	      6.18649004	     16.46847416	      7.14983870	    -20.81312950	     11.32652074	     -8.59099237	     25.94460305	     -7.49949702	     22.12223966	    -32.54167785	     10.65116180	      2.50205665	      0.14639996	      7.47151674	     -1.02355662
      4.76000000	     -2.26679608	      5.90165231	   -491.06282289	      0.76072382	      0.95487386	      0.85102701	      5.65176280	     16.50722642	      8.04958137	    -20.81422419	     11.50824635	     -8.50466381	     26.37495345	     -7.40338144	     22.32500255	    -31.21848781	     10.11323560	      2.61726510	      0.13339241	      7.43597573	     -0.96005776
      4.77000000	     -2.20350940	      5.97713299	   -492.13584241	      0.75557985	      0.95449385	      0.85549913	      5.07140665	     16.54868931	      8.92725799	    -20.77628669	     11.69537140	     -8.37996143	     26.78669690	     -7.35198066	     22.37681822	    -29.92774174	      9.54603567	      2.64413181	      0.10378734	      7.42628789	     -0.89600167
      4.78000000	     -2.15486261	      6.07490236	   -493.18618160	      0.75044455	      0.95408545	      0.85993702	      4.50533386	     16.60376938	      9.79148524	    -20.74171444	     11.84671384	     -8.27365754	     27.21532677	     -7.34479007	     22.28029066	    -28.67043855	      8.95727424	      2.62816148	      0.07990135	      7.44854625	     -0.84170315
      4.79000000	     -2.11684349	      6.19761225	   -494.22017208	      0.74528522	      0.95364736	      0.86434284	      3.95119405	     16.67164107	     10.64658964	    -20.70402554	     11.95731858	     -8.19661855	     27.65668181	     -7.38519078	     22.02027317	    -27.43862417	      8.39063993	      2.63152133	      0.06546429	      7.49876091	     -0.78648575
      4.80000000	     -2.12107261	      6.29052201	   -495.22176661	      0.74007841	      0.95328880	      0.86881391	      3.30765079	     16.72275885	     11.48273596	    -20.60683999	     12.08299237	     -8.04874249	     28.00991518	     -7.44670293	     21.63629302	    -26.18816994	      7.86790329	      2.62332045	     -0.00124070	      7.56203154	     -0.71268761
      4.81000000	     -2.11731464	      6.42034203	   -496.21257031	      0.73485259	      0.95287553	      0.87325399	      2.70486406	     16.78024063	     12.30982139	    -20.51871206	     12.18414697	     -7.94344242	     28.37652022	     -7.54161483	     21.12651154	    -24.94099240	      7.42619683	      2.70621869	     -0.03668807	      7.64998252	     -0.61875667
      4.82000000	     -2.10590530	      6.57508604	   -497.19024139	      0.72959057	      0.95242118	      0.87768195	      2.13195687	     16.83519446	     13.12069475	    -20.44053113	     12.25428523	     -7.86206471	     28.73813947	     -7.65930916	     20.50701934	    -23.68990349	      7.08335144	      2.83614022	     -0.04783131	      7.75341224	     -0.52362681
      4.83000000	     -2.10147477	      6.71695219	   -498.14678791	      0.72428019	      0.95200273	      0.88216663	      1.52331116	     16.86030238	     13.91429355	    -20.32685611	     12.32569096	     -7.75053655	     29.02889050	     -7.77300914	     19.83146898	    -22.40743664	      6.82776578	      3.02417309	     -0.06873815	      7.85571706	     -0.41437694
      4.84000000	     -2.11882438	      6.81921011	   -499.07064918	      0.71893293	      0.95164926	      0.88671965	      0.87029042	     16.84766937	     14.68203621	    -20.21459972	     12.42490957	     -7.53967574	     29.19514410	     -7.86258199	     19.19181791	    -21.06530469	      6.70579176	      3.33535123	     -0.13237091	      7.94385550	     -0.32898886
      4.85000000	     -2.10506460	      6.96285832	   -499.97612651	      0.71356673	      0.95122322	      0.89128011	      0.28725912	     16.83091859	     15.41950306	    -20.12030035	     12.48883694	     -7.30308743	     29.37583840	     -7.95166020	     18.57509751	    -19.72452825	      6.64031375	      3.66743177	     -0.13666569	      8.04736134	     -0.26472864
      4.86000000	     -2.07092674	      7.11755217	   -500.87413447	      0.70814811	      0.95075242	      0.89587473	     -0.25558022	     16.79780886	     16.12900083	    -20.05588398	     12.55719463	     -7.11564613	     29.50645743	     -8.03069287	     18.06694994	    -18.35354150	      6.67575657	      3.92994650	     -0.11179935	      8.15013888	     -0.18704378
      4.87000000	     -2.04027702	      7.26999179	   -501.74351297	      0.70267618	      0.95028482	      0.90051100	     -0.79472324	     16.75419520	     16.80916482	    -19.99986723	     12.61454722	     -6.85687450	     29.56158085	     -8.09986481	     17.72895918	    -16.95838102	      6.73208462	      4.23074602	     -0.08684365	      8.25432034	     -0.14554829
      4.88000000	     -2.00527271	      7.43309669	   -502.58827566	      0.69714534	      0.94979221	      0.90518469	     -1.30522504	     16.71111949	     17.46145878	    -19.97200479	     12.65761583	     -6.50397944	     29.55669216	     -8.16802208	     17.61640024	    -15.55486269	      6.79286435	      4.55359905	     -0.04626030	      8.36711255	     -0.13713492
      4.89000000	     -1.97271173	      7.60780465	   -503.43955025	      0.69149973	      0.94925419	      0.90984826	     -1.79686961	     16.68252549	     18.11938299	    -19.98304793	     12.69576251	     -6.26020683	     29.48999382	     -8.26268677	     17.72716673	    -14.17818384	      6.88564327	      4.75989161	      0.00129715	      8.48915916	     -0.10666403
      4.90000000	     -1.95238678	      7.79533942	   -504.27459536	      0.68574798	      0.94868712	      0.91450962	     -2.27827925	     16.67485383	     18.76976439	    -20.02242011	     12.70414899	     -5.98170448	     29.37051243	     -8.38624344	     18.07867457	    -12.86188493	      6.95153556	      4.94178581	      0.04762728	      8.62410970	     -0.09958918
      4.91000000	     -1.94279299	      7.99391531	   -505.10444545	      0.67987171	      0.94807642	      0.91916245	     -2.74384282	     16.69078471	     19.42665596	    -20.11016451	     12.68966210	     -5.70351561	     29.21850399	     -8.54034380	     18.63749189	    -11.67037034	      7.00269570	      5.07417743	      0.09220100	      8.76997264	     -0.09981521
      4.92000000	     -1.94179246	      8.20684448	   -505.93492181	      0.67386336	      0.94741443	      0.92380925	     -3.19151032	     16.72999972	     20.08636665	    -20.24645546	     12.67229839	     -5.43962172	     29.05461067	     -8.72620963	     19.33062978	    -10.65310904	      7.01540481	      5.16272644	      0.13757772	      8.92820534	     -0.09986460
      4.93000000	     -1.96484975	      8.38081651	   -506.77649691	      0.66772236	      0.94675587	      0.92847174	     -3.66193237	     16.75261736	     20.76248547	    -20.44879955	     12.69895172	     -5.03214454	     28.84805692	     -8.90204942	     20.10029499	     -9.87515391	      7.01396227	      5.19657058	      0.13202321	      9.05839969	     -0.06679900
      4.94000000	     -1.98322464	      8.59445586	   -507.62014020	      0.66144392	      0.94601974	      0.93315122	     -4.09813109	     16.80949205	     21.44178548	    -20.68041261	     12.65817130	     -4.75369233	     28.69783478	     -9.09845210	     20.90045403	     -9.38116063	      6.99324375	      5.19670059	      0.15932971	      9.21746119	     -0.02336069
      4.95000000	     -1.99541540	      8.79174121	   -508.47264709	      0.65501324	      0.94526758	      0.93787530	     -4.52141343	     16.84815310	     22.11223995	    -20.96399680	     12.61346112	     -4.40982763	     28.54826105	     -9.27066151	     21.67019539	     -9.14725457	      6.89488531	      5.13969654	      0.18874739	      9.35284237	      0.01833459
      4.96000000	     -1.99247803	      8.98421600	   -509.32492903	      0.64845632	      0.94448481	      0.94266280	     -4.91547107	     16.87312127	     22.75811301	    -21.29402760	     12.55958062	     -4.07065116	     28.42765604	     -9.40818764	     22.40400825	     -9.18983572	      6.71586926	      5.03523400	      0.23676264	      9.47416890	      0.06065910
      4.97000000	     -1.96292705	      9.16266931	   -510.17096691	      0.64177627	      0.94368872	      0.94752319	     -5.27360029	     16.86970103	     23.36693678	    -21.66563277	     12.48896585	     -3.70079453	     28.33666706	     -9.49462221	     23.08893252	     -9.48339041	      6.40925822	      4.87156328	      0.31323147	      9.56514941	      0.09931599
      4.98000000	     -1.89716994	      9.32118122	   -511.00496854	      0.63498832	      0.94289448	      0.95244540	     -5.58018117	     16.83315017	     23.93325472	    -22.08928578	     12.41660445	     -3.30649687	     28.27935571	     -9.52107316	     23.70872080	     -9.99303190	      5.93207786	      4.66055783	      0.42499895	      9.61630829	      0.10033131
      4.99000000	     -1.78621090	      9.44833192	   -511.81472375	      0.62810821	      0.94213630	      0.95743859	     -5.82741325	     16.74860739	     24.42922768	    -22.55835912	     12.31061739	     -2.85374738	     28.26313589	     -9.46976584	     24.25897856	    -10.68864064	      5.25556564	      4.41389581	      0.58100084	      9.60875957	      0.07607813
      5.00000000	     -1.63679681	      9.53957379	   -512.59594950	      0.62117349	      0.94144735	      0.96249081	     -6.01383425	     16.61929802	     24.85428051	    -23.08141557	     12.18272549	     -2.33816996	     28.30050247	     -9.33996052	     24.69851798	    -11.55953649	      4.40484578	      4.15248353	      0.76903372	      9.54627633	      0.00470598
      5.01000000	     -1.45190851	      9.58691254	   -513.34394311	      0.61419806	      0.94086606	      0.96758088	     -6.13688069	     16.44258745	     25.19822801	    -23.66283959	     12.02247128	     -1.74252527	     28.39505898	     -9.13311826	     24.99550599	    -12.57856767	      3.44234924	      3.91473734	      0.98380002	      9.42030685	     -0.10813969
      5.02000000	     -1.23866889	      9.58341863	   -514.05602832	      0.60720068	      0.94040686	      0.97269127	     -6.19186385	     16.22003298	     25.44060823	    -24.32049550	     11.83674351	     -1.15001084	     28.56104480	     -8.85220101	     25.08564294	    -13.74754440	      2.48573691	      3.77476849	      1.21379265	      9.22651983	     -0.26825203
      5.03000000	     -1.02035254	      9.52732445	   -514.71411469	      0.60015900	      0.94014495	      0.97785470	     -6.21942729	     15.95068984	     25.59885423	    -25.00668911	     11.55353218	     -0.34345931	     28.74648319	     -8.52005673	     25.02138216	    -14.98610057	      1.60551577	      3.74155493	      1.44382218	      8.97438754	     -0.47011852
